<svg width="20" height="20" fill="none" xmlns="http://www.w3.org/2000/svg"><g clip-path="url(#clip0)" fill="#fff"><path d="M17.225 15.213l-3.029-1.99a1.984 1.984 0 00-2.329.102 1.477 1.477 0 01-1.966-.112l-3.075-3.075a1.478 1.478 0 01-.112-1.966 1.984 1.984 0 00.102-2.33l-1.99-3.028a1.952 1.952 0 00-1.52-.893 1.951 1.951 0 00-1.633.664 6.653 6.653 0 00.272 9.111l6.397 6.398a6.633 6.633 0 004.703 1.945c1.573 0 3.15-.555 4.409-1.673.474-.42.71-1 .664-1.633a1.952 1.952 0 00-.893-1.52zm-.55 2.277a5.48 5.48 0 01-7.504-.224l-6.398-6.398a5.48 5.48 0 01-.224-7.505.778.778 0 01.672-.273c.268.02.478.143.626.367l1.99 3.029a.805.805 0 01-.04.956 2.649 2.649 0 00.2 3.524l3.075 3.076a2.648 2.648 0 003.525.2.804.804 0 01.956-.04l3.029 1.99a.783.783 0 01.367.626.783.783 0 01-.273.672zM19.828.21a.583.583 0 00-.829.001l-6.537 6.554V4.648a.586.586 0 00-1.172 0v3.534a.585.585 0 00.586.586h3.535a.586.586 0 100-1.171h-2.123l6.54-6.558a.586.586 0 000-.829z"/></g><defs><clipPath id="clip0"><path fill="#fff" d="M0 0h20v20H0z"/></clipPath></defs></svg>