<svg width="218" height="77" fill="none" xmlns="http://www.w3.org/2000/svg"><path d="M.42 26.04v-2.592L9.06 12.36v6.96l-4.416 5.424 4.416 5.424v6.96L.42 26.04zm9.84 0v-2.592l8.736-11.088v6.96l-4.464 5.424 4.464 5.424v6.96L10.26 26.04zM32.084.12h7.584L47.444 39h-6.576l-1.536-8.976h-6.768L30.98 39h-6.672L32.084.12zm6.48 25.392l-2.64-16.32-2.64 16.32h5.28zM53.274.12h9.6c3.68 0 6.497.752 8.449 2.256 1.952 1.504 2.928 4.08 2.928 7.728 0 2.368-.48 4.224-1.44 5.568-.96 1.312-2.352 2.112-4.176 2.4 4.48.864 6.72 4.064 6.72 9.6 0 3.744-.912 6.576-2.736 8.496C70.795 38.056 68.09 39 64.507 39H53.275V.12zm9.505 15.888c2.048 0 3.44-.448 4.176-1.344.768-.928 1.152-2.416 1.152-4.464 0-1.984-.496-3.328-1.488-4.032-.96-.736-2.576-1.104-4.848-1.104h-1.44v10.944h2.448zm.288 18c2.08 0 3.52-.496 4.32-1.488.8-.992 1.2-2.624 1.2-4.896 0-2.336-.448-4.032-1.344-5.088-.864-1.088-2.336-1.632-4.416-1.632H60.33v13.104h2.736zM87.72.12h7.584L103.081 39h-6.576l-1.536-8.976h-6.768L86.617 39h-6.672L87.721.12zm6.48 25.392l-2.64-16.32-2.64 16.32h5.28zM109.487.12h7.344l5.52 26.928L128.063.12h7.152l.72 38.88h-5.28l-.576-27.024L124.559 39h-4.272l-5.616-27.12-.528 27.12h-5.328l.672-38.88zm34.11 0h16.32v4.992h-9.264v11.184h7.296v4.944h-7.296v12.912h9.36V39h-16.416V.12zm20.243 33.84h1.392c1.184-.64 2.192-1.648 3.024-3.024.832-1.408 1.552-3.568 2.16-6.48.608-2.912 1.056-6.832 1.344-11.76L172.624.12h17.184v33.84h4.08v12.768h-4.944L188.512 39H169.36l-.48 7.728h-5.04V33.96zm19.248 0V5.208h-4.896l-.432 8.592c-.224 4.832-.624 8.576-1.2 11.232-.544 2.656-1.168 4.544-1.872 5.664-.704 1.12-1.648 2.208-2.832 3.264h11.232zm16.135-3.792l4.656-5.424-4.656-5.424v-6.96l8.928 11.088v2.592l-8.928 11.088v-6.96zm9.888 0l4.656-5.424-4.656-5.424v-6.96l8.88 11.088v2.592l-8.88 11.088v-6.96zM12.49 56.8h3.06l2.3 11.22 2.38-11.22h2.98l.3 16.2h-2.2l-.24-11.26L18.77 73h-1.78l-2.34-11.3-.22 11.3h-2.22l.28-16.2zm14.212 0h6.8v2.08h-3.86v4.66h3.04v2.06h-3.04v5.38h3.9V73h-6.84V56.8zm8.435 14.1h.58c.493-.267.913-.687 1.26-1.26.346-.587.646-1.487.9-2.7.253-1.213.44-2.847.56-4.9l.36-5.24h7.16v14.1h1.7v5.32h-2.06l-.18-3.22h-7.98l-.2 3.22h-2.1V70.9zm8.02 0V58.92h-2.04l-.18 3.58c-.094 2.013-.26 3.573-.5 4.68-.227 1.107-.487 1.893-.78 2.36a6.43 6.43 0 01-1.18 1.36h4.68zm6.922-14.1h6.8v2.08h-3.86v4.66h3.04v2.06h-3.04v5.38h3.9V73h-6.84V56.8zM68.354 73h-8.88V56.8h2.94v14.18h3.64V56.8h2.94v14.18h1.88v5.24h-2.2l-.32-3.22zm5.025-16.2h2.42v10.22l4.44-10.22h1.98V73h-2.46V62.6L75.32 73h-1.94V56.8zm12.168 0h2.94v6.76h3.3V56.8h2.96V73h-2.96v-7.32h-3.3V73h-2.94V56.8zm16.838 16.42c-1.68 0-2.873-.467-3.58-1.4-.693-.947-1.04-2.28-1.04-4v-5.78c0-1.773.347-3.12 1.04-4.04.694-.92 1.887-1.38 3.58-1.38 1.587 0 2.714.4 3.38 1.2.667.8 1 1.953 1 3.46v1.36h-2.84v-1.4c0-.573-.026-1.02-.08-1.34a1.3 1.3 0 00-.42-.8c-.213-.213-.553-.32-1.02-.32-.48 0-.84.113-1.08.34-.24.213-.4.507-.48.88-.066.36-.1.833-.1 1.42v7.02c0 .92.12 1.587.36 2 .24.4.674.6 1.3.6.454 0 .787-.107 1-.32.227-.213.367-.493.42-.84.067-.36.1-.833.1-1.42V67h2.84v1.3c0 1.56-.326 2.773-.98 3.64-.653.853-1.786 1.28-3.4 1.28zm7.281-16.42h2.94v6.8h.6l2.62-6.8h2.94l-3.08 7.66 3.32 8.54h-2.98l-2.82-7.46h-.6V73h-2.94V56.8zm11.621 0h2.42v10.22l4.44-10.22h1.98V73h-2.46V62.6l-4.44 10.4h-1.94V56.8zm12.167 0h2.42v10.22l4.44-10.22h1.98V73h-2.46V62.6l-4.44 10.4h-1.94V56.8zm4.64-1.28c-.934 0-1.647-.26-2.14-.78-.494-.52-.74-1.233-.74-2.14h1.54c.013.507.12.88.32 1.12.213.24.553.36 1.02.36.48 0 .82-.12 1.02-.36.213-.253.32-.627.32-1.12h1.56c0 .907-.247 1.62-.74 2.14-.494.52-1.214.78-2.16.78zm7.407 10h4.82v1.86h-4.82v-1.86zM162.41 73h-8.88V56.8h2.94v14.18h3.64V56.8h2.94v14.18h1.88v5.24h-2.2l-.32-3.22zm4.986-16.2h6.8v2.08h-3.86v4.66h3.04v2.06h-3.04v5.38h3.9V73h-6.84V56.8zm9.394 0h2.94v6.76h3.3V56.8h2.96V73h-2.96v-7.32h-3.3V73h-2.94V56.8zm14.099 2.18h-2.58V56.8h8.06v2.18h-2.52V73h-2.96V58.98zm7.754-2.18h4.76c2.76 0 4.14 1.533 4.14 4.6 0 2.933-1.446 4.4-4.34 4.4h-1.62V73h-2.94V56.8zm4.08 6.92c.8 0 1.34-.167 1.62-.5.28-.347.42-.96.42-1.84 0-.64-.046-1.127-.14-1.46a1.239 1.239 0 00-.58-.78c-.28-.173-.72-.26-1.32-.26h-1.14v4.84h1.14z" fill="#fff"/></svg>